<svg width="858" height="364" viewBox="0 0 858 364" fill="none" xmlns="http://www.w3.org/2000/svg">
<g clip-path="url(#clip0)">
<path d="M279.694 223.228C283.494 235.381 288.96 246.902 295.924 257.472C335.861 247.038 377.271 221.866 413.007 186.136C443.82 155.323 466.742 120.617 479.291 85.7717C481.278 80.2542 482.924 74.6581 484.364 69.065C473.788 62.0948 462.264 56.6285 450.105 52.8233C448.713 59.6274 446.801 66.4496 444.364 73.1964C433.818 102.503 413.367 133.292 386.763 159.892C353.643 193.019 315.017 215.793 279.694 223.228V223.228ZM409.501 151.711H421.871V164.081H409.501V151.711Z" fill="#030161"/>
<path d="M303.719 268.187C313.978 280.871 326.595 291.758 341.137 300.223C372.445 278.168 407.23 248.463 441.272 214.413C475.322 180.365 505.027 145.58 527.089 114.272C518.629 99.7484 507.748 87.1458 495.076 76.8898C493.826 81.2689 492.473 85.6419 490.915 89.9635C477.772 126.512 453.847 162.794 421.747 194.882C385.872 230.766 344.299 256.515 303.719 268.187V268.187ZM353.836 281.596H341.466V269.226H353.836V281.596ZM483.721 126.971H496.091V139.341H483.721V126.971Z" fill="#030161"/>
<path d="M387.406 48.3839C330.047 57.7912 284.662 103.176 275.255 160.535C296.773 153.789 321.461 137.719 343.03 116.159C364.59 94.6023 380.654 69.9015 387.406 48.3839ZM341.466 77.4908H353.836V89.8609H341.466V77.4908Z" fill="#030161"/>
<path d="M467.516 240.651C456.345 251.822 422.061 285.28 382.384 315.928C391.278 317.728 400.341 318.706 409.501 318.706C484.53 318.706 545.571 257.665 545.571 182.636C545.571 173.476 544.593 164.407 542.799 155.519C521.677 183.032 496.003 212.169 467.516 240.651ZM422.508 305.659L421.228 293.359C425.142 292.951 429.083 292.32 432.948 291.499L435.534 303.594C431.245 304.512 426.869 305.203 422.508 305.659ZM448.559 300.039L444.657 288.306C481.897 275.918 510.143 244.41 518.358 206.083L530.447 208.675C521.326 251.269 489.948 286.277 448.559 300.039V300.039Z" fill="#030161"/>
<path d="M579.278 12.8616C574.898 8.48261 566.965 3.27005 553.982 3.27005C533.313 3.27005 502.306 17.5427 463.928 44.6111C468.4 46.3718 472.804 48.2895 477.065 50.473C510.959 27.3275 553.493 4.55658 570.519 21.6076C582.766 33.8478 576.224 60.4632 551.068 100.708C528.067 137.516 492.18 181.001 450.012 223.164C407.849 265.326 364.355 301.219 327.556 324.22C300.445 341.162 279.522 349.66 265.011 349.66C257.98 349.66 252.463 347.667 248.461 343.666C231.404 326.609 254.175 284.105 277.321 250.217C275.125 245.926 273.201 241.489 271.432 236.996C266.349 244.213 261.635 251.262 257.41 258.018C238.918 287.632 216.941 329.632 239.721 352.406C244.094 356.779 252.031 361.994 265.017 362C309.001 362 394.026 296.662 458.77 231.904C501.581 189.098 538.093 144.824 561.577 107.258C580.084 77.6381 602.058 35.6356 579.278 12.8616V12.8616Z" fill="#030161"/>
<path d="M378.017 151.152C403.358 125.814 422.78 96.6498 432.725 69.0167C435.044 62.5719 436.696 56.0698 437.977 49.5949C428.717 47.6228 419.186 46.5658 409.501 46.5658C406.499 46.5658 403.524 46.6957 400.574 46.892C394.235 71.5474 376.38 100.307 351.776 124.911C327.172 149.515 298.413 167.37 273.757 173.709C273.561 176.659 273.431 179.634 273.431 182.636C273.431 192.375 274.5 201.952 276.499 211.242C309.662 204.468 346.334 182.838 378.017 151.152V151.152Z" fill="#030161"/>
</g>
<path d="M101.04 226.84C78.576 229.24 57.936 230.44 39.12 230.44C29.712 230.44 22.8 228.232 18.384 223.816C13.968 219.4 11.76 212.488 11.76 203.08V157C11.76 146.92 14.016 139.624 18.528 135.112C23.136 130.504 30.48 128.2 40.56 128.2H92.4V148.36H46.32C40.56 148.36 37.68 151.24 37.68 157V203.08C37.68 205.288 38.304 207.064 39.552 208.408C40.896 209.656 42.672 210.28 44.88 210.28C55.92 210.28 66 210.04 75.12 209.56V188.68H56.4V171.4H101.04V226.84ZM144.268 210.28C149.356 210.28 155.116 209.32 161.548 207.4V198.76H140.668C139.228 198.76 138.028 199.24 137.068 200.2C136.108 201.16 135.628 202.36 135.628 203.8V205.24C135.628 206.68 136.108 207.88 137.068 208.84C138.028 209.8 139.228 210.28 140.668 210.28H144.268ZM117.628 154.12C135.196 152.2 151.036 151.24 165.148 151.24C171.676 151.24 176.908 153.208 180.844 157.144C184.78 161.08 186.748 166.312 186.748 172.84V229H164.428L162.988 221.8C158.476 224.776 153.82 226.984 149.02 228.424C144.316 229.768 140.332 230.44 137.068 230.44H132.028C125.5 230.44 120.268 228.472 116.332 224.536C112.396 220.6 110.428 215.368 110.428 208.84V202.36C110.428 195.832 112.396 190.6 116.332 186.664C120.268 182.728 125.5 180.76 132.028 180.76H161.548V175C161.548 173.56 161.068 172.36 160.108 171.4C159.148 170.44 157.948 169.96 156.508 169.96C150.268 169.96 143.356 170.248 135.772 170.824C128.284 171.4 122.236 171.832 117.628 172.12V154.12ZM250.789 151.24C258.565 151.24 264.565 154.12 268.789 159.88C273.205 156.904 277.957 154.744 283.045 153.4C288.229 151.96 292.837 151.24 296.869 151.24H298.309C304.837 151.24 310.069 153.208 314.005 157.144C317.941 161.08 319.909 166.312 319.909 172.84V229H294.709V177.16C294.709 175.72 294.229 174.52 293.269 173.56C292.309 172.6 291.109 172.12 289.669 172.12H288.949C284.629 172.12 279.109 173.08 272.389 175V229H247.189V177.16C247.189 175.72 246.709 174.52 245.749 173.56C244.789 172.6 243.589 172.12 242.149 172.12H241.429C237.109 172.12 231.589 173.08 224.869 175V229H199.669V152.68H221.989L223.429 159.88C227.941 156.904 232.549 154.744 237.253 153.4C242.053 151.96 246.085 151.24 249.349 151.24H250.789ZM362.361 169.24C358.521 169.24 356.601 171.16 356.601 175V182.92H381.081V175C381.081 171.16 379.161 169.24 375.321 169.24H362.361ZM403.401 227.56C384.873 229.48 368.073 230.44 353.001 230.44C346.473 230.44 341.241 228.472 337.305 224.536C333.369 220.6 331.401 215.368 331.401 208.84V174.28C331.401 167.08 333.417 161.464 337.449 157.432C341.577 153.304 347.241 151.24 354.441 151.24H383.241C390.441 151.24 396.057 153.304 400.089 157.432C404.217 161.464 406.281 167.08 406.281 174.28V200.92H356.601V206.68C356.601 208.12 357.081 209.32 358.041 210.28C359.001 211.24 360.201 211.72 361.641 211.72C371.145 211.72 385.065 211 403.401 209.56V227.56ZM417.6 208.12C443.904 209.56 461.712 210.28 471.024 210.28C473.232 210.28 474.96 209.656 476.208 208.408C477.552 207.064 478.224 205.288 478.224 203.08V190.12H445.104C435.024 190.12 427.68 187.864 423.072 183.352C418.56 178.744 416.304 171.4 416.304 161.32V157C416.304 146.92 418.56 139.624 423.072 135.112C427.68 130.504 435.024 128.2 445.104 128.2H495.648V148.36H450.864C445.104 148.36 442.224 151.24 442.224 157V159.88C442.224 165.64 445.104 168.52 450.864 168.52H476.784C486.192 168.52 493.104 170.728 497.52 175.144C501.936 179.56 504.144 186.472 504.144 195.88V203.08C504.144 212.488 501.936 219.4 497.52 223.816C493.104 228.232 486.192 230.44 476.784 230.44C471.888 230.44 466.704 230.344 461.232 230.152L447.984 229.576C438.192 229.096 428.064 228.424 417.6 227.56V208.12ZM558.133 172.12C553.045 172.12 547.285 173.08 540.853 175V209.56H562.453C566.293 209.56 568.213 207.64 568.213 203.8V177.16C568.213 175.72 567.733 174.52 566.773 173.56C565.813 172.6 564.613 172.12 563.173 172.12H558.133ZM540.853 229V253.48H515.653V152.68H537.973L539.413 159.88C543.925 156.904 548.533 154.744 553.237 153.4C558.037 151.96 562.069 151.24 565.333 151.24H571.813C578.341 151.24 583.573 153.208 587.509 157.144C591.445 161.08 593.413 166.312 593.413 172.84V205.96C593.413 213.16 591.349 218.824 587.221 222.952C583.189 226.984 577.573 229 570.373 229H540.853ZM636.596 210.28C641.684 210.28 647.444 209.32 653.876 207.4V198.76H632.996C631.556 198.76 630.356 199.24 629.396 200.2C628.436 201.16 627.956 202.36 627.956 203.8V205.24C627.956 206.68 628.436 207.88 629.396 208.84C630.356 209.8 631.556 210.28 632.996 210.28H636.596ZM609.956 154.12C627.524 152.2 643.364 151.24 657.476 151.24C664.004 151.24 669.236 153.208 673.172 157.144C677.108 161.08 679.076 166.312 679.076 172.84V229H656.756L655.316 221.8C650.804 224.776 646.148 226.984 641.348 228.424C636.644 229.768 632.66 230.44 629.396 230.44H624.356C617.828 230.44 612.596 228.472 608.66 224.536C604.724 220.6 602.756 215.368 602.756 208.84V202.36C602.756 195.832 604.724 190.6 608.66 186.664C612.596 182.728 617.828 180.76 624.356 180.76H653.876V175C653.876 173.56 653.396 172.36 652.436 171.4C651.476 170.44 650.276 169.96 648.836 169.96C642.596 169.96 635.684 170.248 628.1 170.824C620.612 171.4 614.564 171.832 609.956 172.12V154.12ZM759.677 227.56C741.725 229.48 725.885 230.44 712.157 230.44C705.629 230.44 700.397 228.472 696.461 224.536C692.525 220.6 690.557 215.368 690.557 208.84V175.72C690.557 168.52 692.573 162.904 696.605 158.872C700.733 154.744 706.397 152.68 713.597 152.68H759.677V172.12H721.517C717.677 172.12 715.757 174.04 715.757 177.88V205.96C715.757 207.4 716.237 208.6 717.197 209.56C718.157 210.52 719.357 211 720.797 211C729.437 211 742.397 210.28 759.677 208.84V227.56ZM800.689 169.24C796.849 169.24 794.929 171.16 794.929 175V182.92H819.409V175C819.409 171.16 817.489 169.24 813.649 169.24H800.689ZM841.729 227.56C823.201 229.48 806.401 230.44 791.329 230.44C784.801 230.44 779.569 228.472 775.633 224.536C771.697 220.6 769.729 215.368 769.729 208.84V174.28C769.729 167.08 771.745 161.464 775.777 157.432C779.905 153.304 785.569 151.24 792.769 151.24H821.569C828.769 151.24 834.385 153.304 838.417 157.432C842.545 161.464 844.609 167.08 844.609 174.28V200.92H794.929V206.68C794.929 208.12 795.409 209.32 796.369 210.28C797.329 211.24 798.529 211.72 799.969 211.72C809.473 211.72 823.393 211 841.729 209.56V227.56Z" fill="white"/>
<defs>
<clipPath id="clip0">
<rect x="230" y="3" width="359" height="359" fill="white"/>
</clipPath>
</defs>
</svg>
